<svg width="24" height="24" viewBox="0 0 24 24" xmlns="http://www.w3.org/2000/svg" fill="currentColor"><path d="M13.0737 3.06373C12.8704 2.65719 12.4549 2.40039 12.0004 2.40039C11.5459 2.40039 11.1304 2.65719 10.9271 3.06373L2.52709 19.8637C2.31427 20.2894 2.37308 20.8006 2.67699 21.1668C2.98091 21.533 3.4725 21.685 3.93007 21.5542L9.93006 19.8399C10.4452 19.6928 10.8004 19.2219 10.8004 18.6861V13.2004C10.8004 12.5377 11.3376 12.0004 12.0004 12.0004C12.6631 12.0004 13.2004 12.5377 13.2004 13.2004V18.6861C13.2004 19.2219 13.5556 19.6927 14.0707 19.8399L20.0707 21.5542C20.5283 21.685 21.0199 21.533 21.3238 21.1668C21.6277 20.8006 21.6865 20.2894 21.4737 19.8637L13.0737 3.06373Z"/></svg>
