<?xml version="1.0" encoding="UTF-8" standalone="no"?>
<svg
   version="1.1"
   viewBox="0 0 67.300003 65.86734"
   id="svg34"
   width="67.300003"
   height="65.86734"
   xmlns="http://www.w3.org/2000/svg"
   xmlns:svg="http://www.w3.org/2000/svg">
  <defs
     id="defs1">
    <style
       id="style1">
      .cls-1 {
        fill: #603e98;
      }

      .cls-2 {
        fill: #010101;
      }

      .cls-3 {
        fill: #f8cc16;
        stroke: #f8cc16;
        stroke-width: .8px;
      }

      .cls-3, .cls-4 {
        stroke-linecap: round;
        stroke-linejoin: round;
      }

      .cls-5 {
        fill: #6b4fa0;
      }

      .cls-6 {
        fill: #4c3084;
      }

      .cls-7 {
        stroke-width: .7px;
      }

      .cls-7, .cls-8 {
        fill: none;
      }

      .cls-7, .cls-8, .cls-9 {
        stroke-miterlimit: 10;
      }

      .cls-7, .cls-8, .cls-9, .cls-4 {
        stroke: #010101;
      }

      .cls-8, .cls-9 {
        stroke-width: 1.2px;
      }

      .cls-9 {
        fill: #603f98;
      }

      .cls-4 {
        fill: #f69320;
        stroke-width: 3.2px;
      }
    </style>
  </defs>
  <!-- Generator: Adobe Illustrator 28.6.0, SVG Export Plug-In . SVG Version: 1.2.0 Build 709)  -->
  <g
     id="g34"
     transform="translate(-216.29999,-215.4)">
    <g
       id="Layer_1">
      <ellipse
         class="cls-9"
         cx="246.3"
         cy="259.79999"
         rx="20.4"
         ry="21"
         transform="rotate(-31.4,246.34343,259.8355)"
         id="ellipse1" />
      <g
         id="g2">
        <ellipse
           class="cls-1"
           cx="248.8"
           cy="258.29999"
           rx="17.5"
           ry="21"
           transform="rotate(-31.4,248.72223,258.20093)"
           id="ellipse2" />
        <path
           class="cls-2"
           d="m 260.2,276.9 c -8.6,5.3 -20.8,1.2 -27,-9.1 -6.3,-10.3 -4.3,-22.9 4.3,-28.2 8.6,-5.3 20.8,-1.2 27,9.1 6.3,10.3 4.3,22.9 -4.3,28.2 z m -22,-36.3 c -7.8,4.8 -9.4,16.9 -3.6,26.4 5.8,9.5 17.3,13.7 25.2,8.9 7.8,-4.8 9.1,-16.8 3.3,-26.3 -5.8,-9.5 -17,-13.8 -24.8,-9 z"
           id="path2" />
      </g>
      <polygon
         class="cls-6"
         points="228,268.7 232.1,266.1 232.9,267.4 228.8,270 "
         id="polygon2" />
      <g
         id="g3">
        <ellipse
           class="cls-5"
           cx="248.8"
           cy="258.29999"
           rx="13.6"
           ry="16.299999"
           transform="rotate(-31.4,248.72223,258.20093)"
           id="ellipse3" />
        <path
           class="cls-6"
           d="m 257.5,272.1 c -6.6,4 -15.8,1.4 -20.6,-6.5 -4.8,-7.9 -3.2,-17.2 3.4,-21.2 6.6,-4 15.3,-1.1 20.1,6.8 4.8,7.9 3.7,16.9 -2.9,20.9 z m -17,-27.4 c -6.2,3.8 -7.6,13 -3,20.5 4.6,7.5 13.4,10.5 19.6,6.7 6.2,-3.8 7.6,-13 3,-20.5 -4.6,-7.5 -13.4,-10.5 -19.6,-6.7 z"
           id="path3" />
      </g>
      <line
         class="cls-7"
         x1="227.8"
         y1="268.89999"
         x2="232.39999"
         y2="266"
         id="line3" />
      <polygon
         class="cls-6"
         points="229.9,271.6 233.8,269 234.7,270.2 230.8,272.8 "
         id="polygon3" />
      <line
         class="cls-7"
         x1="230"
         y1="271.70001"
         x2="234.60001"
         y2="268.79999"
         id="line4" />
      <polygon
         class="cls-6"
         points="232,274.3 236.1,271.8 237.1,272.9 233.2,275.3 "
         id="polygon4" />
      <polygon
         class="cls-6"
         points="234.9,276.7 238.8,274.4 240.1,275.4 236.3,277.6 "
         id="polygon5" />
      <polygon
         class="cls-6"
         points="238.4,278.9 241.9,276.5 243.4,277.3 240.3,279.5 "
         id="polygon6" />
      <polygon
         class="cls-6"
         points="243.2,280.3 246.1,278.4 247.8,278.8 245.3,280.7 "
         id="polygon7" />
      <polygon
         class="cls-6"
         points="226.8,265.4 230.8,263 231.3,264.4 227.3,266.9 "
         id="polygon8" />
      <polygon
         class="cls-6"
         points="226.2,261.5 229.8,259.4 230.2,260.8 226.4,263 "
         id="polygon9" />
      <polygon
         class="cls-6"
         points="226.1,257.6 229.4,255.8 229.5,257.1 226.1,259 "
         id="polygon10" />
      <polygon
         class="cls-6"
         points="227.4,252.5 229.8,251.3 229.6,252.5 227,253.8 "
         id="polygon11" />
      <line
         class="cls-7"
         x1="232.5"
         y1="274.29999"
         x2="237.2"
         y2="271.5"
         id="line11" />
      <line
         class="cls-7"
         x1="235.3"
         y1="276.70001"
         x2="240"
         y2="273.89999"
         id="line12" />
      <line
         class="cls-7"
         x1="238.5"
         y1="279"
         x2="243.10001"
         y2="276.20001"
         id="line13" />
      <line
         class="cls-7"
         x1="226.39999"
         y1="265.5"
         x2="231.10001"
         y2="262.70001"
         id="line14" />
      <line
         class="cls-7"
         x1="226.10001"
         y1="261.60001"
         x2="230.8"
         y2="258.70001"
         id="line15" />
      <line
         class="cls-7"
         x1="226"
         y1="257.5"
         x2="230.7"
         y2="254.60001"
         id="line16" />
      <line
         class="cls-7"
         x1="226.8"
         y1="252.8"
         x2="230.89999"
         y2="250.3"
         id="line17" />
      <line
         class="cls-7"
         x1="243.3"
         y1="280.20001"
         x2="247.5"
         y2="277.70001"
         id="line18" />
      <line
         class="cls-4"
         x1="242.89999"
         y1="232.39999"
         x2="242.3"
         y2="223.89999"
         id="line19" />
      <line
         class="cls-4"
         x1="252.89999"
         y1="233.5"
         x2="257.10001"
         y2="217"
         id="line20" />
      <line
         class="cls-4"
         x1="261.5"
         y1="237.2"
         x2="264.89999"
         y2="230.2"
         id="line21" />
      <line
         class="cls-4"
         x1="268.20001"
         y1="242.5"
         x2="279.20001"
         y2="235.8"
         id="line22" />
      <line
         class="cls-4"
         x1="272.10001"
         y1="250.3"
         x2="277.60001"
         y2="248.7"
         id="line23" />
      <line
         class="cls-4"
         x1="272.89999"
         y1="258.5"
         x2="282"
         y2="261.20001"
         id="line24" />
      <line
         class="cls-4"
         x1="234.39999"
         y1="235.39999"
         x2="228"
         y2="225.60001"
         id="line25" />
      <line
         class="cls-4"
         x1="227.2"
         y1="240.7"
         x2="221.39999"
         y2="237"
         id="line26" />
      <line
         class="cls-4"
         x1="222.2"
         y1="248.89999"
         x2="217.89999"
         y2="248"
         id="line27" />
      <path
         class="cls-8"
         d="m 257.3,277.7 c -9.6,5.9 -22.3,2.6 -28.4,-7.3 -6,-9.9 -3.1,-22.7 6.5,-28.5"
         id="path27" />
      <g
         id="g33">
        <path
           class="cls-3"
           d="m 241.8,258.1 10.2,-5.5 -0.8,-1.3 -10.2,5.5 z m 4.2,7.1 c 3.4,-1.8 6.8,-3.6 10.2,-5.5 l -0.8,-1.4 c -3.4,1.8 -6.8,3.6 -10.2,5.5 z m 7.3,-10.3 c -3.4,1.8 -6.8,3.6 -10.2,5.5 l 0.8,1.3 10.2,-5.5 z m -7.7,-3.4 -1.4,-2.3 -1.4,0.8 1.4,2.3 z m 8.8,15.2 -1.4,-2.3 -1.4,0.8 1.4,2.3 z"
           id="path28" />
        <path
           class="cls-3"
           d="m 241.8,258.1 -0.8,-1.3 10.2,-5.5 0.8,1.3 z"
           id="path29" />
        <path
           class="cls-3"
           d="m 246,265.2 -0.8,-1.4 c 3.4,-1.8 6.8,-3.6 10.2,-5.5 l 0.8,1.4 c -3.4,1.8 -6.8,3.6 -10.2,5.5 z"
           id="path30" />
        <path
           class="cls-3"
           d="m 253.3,254.9 0.8,1.3 -10.2,5.5 -0.8,-1.3 c 3.4,-1.8 6.8,-3.6 10.2,-5.5 z"
           id="path31" />
        <path
           class="cls-3"
           d="m 245.6,251.5 -1.4,0.8 -1.4,-2.3 1.4,-0.8 z"
           id="path32" />
        <path
           class="cls-3"
           d="m 254.4,266.7 -1.4,0.8 -1.4,-2.3 1.4,-0.8 z"
           id="path33" />
      </g>
    </g>
  </g>
</svg>
