<?xml version="1.0" encoding="UTF-8" standalone="no"?>
<svg
   version="1.1"
   viewBox="0 0 115 115"
   id="svg108"
   width="115"
   height="115"
   xmlns="http://www.w3.org/2000/svg"
   xmlns:svg="http://www.w3.org/2000/svg"
   xmlns:rdf="http://www.w3.org/1999/02/22-rdf-syntax-ns#"
   xmlns:cc="http://creativecommons.org/ns#">
  <defs
     id="defs1">
    <style
       id="style1">
      .cls-1, .cls-2 {
        fill: #f8cc16;
      }

      .cls-1, .cls-2, .cls-3 {
        stroke-width: .6px;
      }

      .cls-1, .cls-2, .cls-3, .cls-4, .cls-5, .cls-6, .cls-7 {
        stroke-linecap: round;
        stroke-linejoin: round;
      }

      .cls-1, .cls-3 {
        stroke: #fff;
      }

      .cls-8 {
        fill: #4c3084;
      }

      .cls-8, .cls-9, .cls-5, .cls-6 {
        fill-rule: evenodd;
      }

      .cls-2 {
        stroke: #f8cc16;
      }

      .cls-9 {
        fill: #603e98;
        stroke: #231f20;
        stroke-miterlimit: 10;
        stroke-width: .9px;
      }

      .cls-3 {
        fill: #fff;
      }

      .cls-4, .cls-5 {
        fill: none;
      }

      .cls-4, .cls-5, .cls-6 {
        stroke-width: .9px;
      }

      .cls-4, .cls-5, .cls-6, .cls-7 {
        stroke: #010101;
      }

      .cls-10 {
        fill: #6b4fa0;
      }

      .cls-6 {
        fill: #603f98;
      }

      .cls-7 {
        fill: #f69320;
        stroke-width: 3.2px;
      }
    </style>
  </defs>
  <!-- Generator: Adobe Illustrator 28.6.0, SVG Export Plug-In . SVG Version: 1.2.0 Build 709)  -->
  <g
     id="g108"
     transform="translate(-210.9,-211.9)">
    <g
       id="Layer_1"
       transform="translate(18.4,19.874994)">
      <g
         id="g107">
        <g
           id="g32">
          <path
             class="cls-6"
             d="m 276.7,266.7 v 9 0 c -0.7,6.1 -12.4,11 -26.7,11 -14.3,0 -26.8,-5.2 -26.8,-11.6 v -8.7 c 17.5,0 35.6,0.3 53.6,0.3 z"
             id="path1" />
          <path
             class="cls-8"
             d="m 227.4,281.4 c -0.6,-0.4 -1.1,-0.8 -1.5,-1.2 v -13.9 c 0.5,0 1,0 1.5,0 v 15 z"
             id="path2" />
          <path
             class="cls-8"
             d="m 231.6,283.6 c -0.5,-0.2 -1,-0.4 -1.5,-0.7 v -16.5 c 0.5,0 1,0 1.5,0 z"
             id="path3" />
          <path
             class="cls-8"
             d="m 235.9,285 c -0.5,-0.1 -1,-0.3 -1.5,-0.4 v -18.1 c 0.5,0 1,0 1.5,0 v 18.6 z"
             id="path4" />
          <path
             class="cls-8"
             d="m 240.1,285.9 c -0.5,0 -1,-0.2 -1.5,-0.3 0,-0.2 0,-0.4 0,-0.6 v -18.6 h 1.5 V 285 c 0,0.3 0,0.6 0,0.9 z"
             id="path5" />
          <path
             class="cls-8"
             d="m 244.3,286.5 c -0.5,0 -1,0 -1.4,-0.1 0,-0.4 0,-0.8 0,-1.3 v -18.6 h 1.5 v 18.6 c 0,0.5 0,1 0,1.4 z"
             id="path6" />
          <path
             class="cls-8"
             d="m 248.5,286.7 c -0.5,0 -0.9,0 -1.4,0 0,-0.5 0,-1 0,-1.6 v -18.5 h 1.5 v 18.5 c 0,0.6 0,1.2 0,1.7 z"
             id="path7" />
          <path
             class="cls-8"
             d="m 252.7,286.7 c -0.5,0 -0.9,0 -1.4,0 0,-0.5 0,-1.1 0,-1.7 v -18.5 h 1.5 V 285 c 0,0.6 0,1.1 0,1.6 z"
             id="path8" />
          <path
             class="cls-8"
             d="m 257,286.3 c -0.5,0 -0.9,0.1 -1.4,0.2 0,-0.4 0,-0.9 0,-1.4 v -18.5 h 1.5 v 18.5 c 0,0.4 0,0.9 0,1.3 z"
             id="path9" />
          <path
             class="cls-8"
             d="m 261.2,285.6 c -0.5,0 -1,0.2 -1.5,0.3 0,-0.3 0,-0.6 0,-0.9 v -18.4 c 0.5,0 1,0 1.5,0 V 285 c 0,0.2 0,0.4 0,0.6 z"
             id="path10" />
          <path
             class="cls-8"
             d="m 265.5,284.6 c -0.5,0.2 -1,0.3 -1.5,0.4 v -18.3 c 0.5,0 1,0 1.5,0 z"
             id="path11" />
          <path
             class="cls-8"
             d="m 269.7,282.9 c -0.5,0.2 -1,0.5 -1.5,0.7 v -16.9 c 0.5,0 1,0 1.5,0 z"
             id="path12" />
          <path
             class="cls-8"
             d="m 274,280.2 c -0.5,0.4 -1,0.8 -1.5,1.2 v -14.7 c 0.5,0 1,0 1.5,0 z"
             id="path13" />
          <path
             class="cls-9"
             d="m 249.9,278.3 c 14.7,0 26.8,-5.2 26.8,-11.6 0,-6.4 -12,-11.6 -26.8,-11.6 -14.8,0 -26.8,5.2 -26.8,11.6 0,6.4 12,11.6 26.8,11.6 z"
             id="path14" />
          <ellipse
             class="cls-10"
             cx="249.89999"
             cy="266.70001"
             rx="24.4"
             ry="9.1999998"
             id="ellipse14" />
          <path
             class="cls-8"
             d="m 249.9,258.7 c 12.9,0 23.5,3.8 24.4,8.6 0,-0.2 0,-0.4 0,-0.6 0,-5.1 -10.9,-9.2 -24.4,-9.2 -13.5,0 -24.4,4.1 -24.4,9.2 0,5.1 0,0.4 0,0.6 0.9,-4.8 11.4,-8.6 24.4,-8.6 z"
             id="path15" />
          <g
             id="g21">
            <path
               class="cls-3"
               d="m 244.8,264.3 h 11.5 c 0,-0.5 0,-0.8 0,-1.2 -3.8,0 -7.7,0 -11.5,0.1 z m 0.1,5.6 c 3.8,0 7.7,0 11.5,-0.1 v -1.1 c -3.9,0 -7.7,0 -11.5,0.1 z m 11.4,-3.9 c -3.8,0 -7.7,0 -11.5,0.1 v 1.1 c 3.9,0 7.7,0 11.5,-0.1 z m -5.1,-4.4 v -1.8 c -0.6,0 -1.1,0 -1.6,0 v 1.8 c 0.6,0 1.1,0 1.6,0 z m 0.4,11.8 v -1.8 c -0.6,0 -1.1,0 -1.6,0 v 1.8 c 0.6,0 1.1,0 1.6,0 z"
               id="path16" />
            <path
               class="cls-3"
               d="m 244.8,264.3 v -1.1 c 3.8,0 7.6,0 11.5,-0.1 v 1.1 c -3.8,0 -7.6,0 -11.5,0.1 z"
               id="path17" />
            <path
               class="cls-3"
               d="m 244.9,269.9 v -1.1 c 3.8,0 7.6,0 11.5,-0.1 v 1.1 c -3.8,0 -7.6,0 -11.5,0.1 z"
               id="path18" />
            <path
               class="cls-3"
               d="m 256.3,266 v 1.1 c -3.8,0 -7.6,0 -11.5,0.1 v -1.1 c 3.8,0 7.6,0 11.5,-0.1 z"
               id="path19" />
            <path
               class="cls-3"
               d="m 251.2,261.6 h -1.6 c 0,-0.6 0,-1.2 0,-1.8 h 1.6 c 0,0.6 0,1.2 0,1.8 z"
               id="path20" />
            <path
               class="cls-3"
               d="M 251.6,273.4 H 250 c 0,-0.6 0,-1.2 0,-1.8 h 1.6 c 0,0.6 0,1.2 0,1.8 z"
               id="path21" />
          </g>
          <line
             class="cls-4"
             x1="227.5"
             y1="273.29999"
             x2="227.5"
             y2="281.39999"
             id="line21" />
          <line
             class="cls-4"
             x1="231.60001"
             y1="275.39999"
             x2="231.60001"
             y2="283.60001"
             id="line22" />
          <line
             class="cls-4"
             x1="235.89999"
             y1="276.89999"
             x2="235.89999"
             y2="285"
             id="line23" />
          <line
             class="cls-4"
             x1="240.10001"
             y1="277.5"
             x2="240.10001"
             y2="286"
             id="line24" />
          <line
             class="cls-4"
             x1="244.3"
             y1="278.39999"
             x2="244.3"
             y2="286.5"
             id="line25" />
          <line
             class="cls-4"
             x1="248.5"
             y1="278.70001"
             x2="248.5"
             y2="286.70001"
             id="line26" />
          <line
             class="cls-4"
             x1="252.89999"
             y1="278.60001"
             x2="252.89999"
             y2="286.70001"
             id="line27" />
          <line
             class="cls-4"
             x1="257.20001"
             y1="278.10001"
             x2="257.20001"
             y2="286.20001"
             id="line28" />
          <line
             class="cls-4"
             x1="261.20001"
             y1="277.5"
             x2="261.20001"
             y2="285.60001"
             id="line29" />
          <line
             class="cls-4"
             x1="265.39999"
             y1="276.29999"
             x2="265.39999"
             y2="284.60001"
             id="line30" />
          <line
             class="cls-4"
             x1="269.70001"
             y1="274.79999"
             x2="269.70001"
             y2="282.89999"
             id="line31" />
          <line
             class="cls-4"
             x1="273.89999"
             y1="271.79999"
             x2="273.89999"
             y2="280.20001"
             id="line32" />
        </g>
        <g
           id="g63">
          <path
             class="cls-6"
             d="m 281.1,256.2 v 9 0 c -0.7,6.1 -12.4,11 -26.7,11 -14.3,0 -26.8,-5.2 -26.8,-11.6 v -8.7 c 17.5,0 35.6,0.3 53.6,0.3 z"
             id="path32" />
          <path
             class="cls-8"
             d="m 231.9,271 c -0.6,-0.4 -1.1,-0.8 -1.5,-1.2 v -13.9 c 0.5,0 1,0 1.5,0 v 15 z"
             id="path33" />
          <path
             class="cls-8"
             d="m 236.1,273.1 c -0.5,-0.2 -1,-0.4 -1.5,-0.7 v -16.5 c 0.5,0 1,0 1.5,0 z"
             id="path34" />
          <path
             class="cls-8"
             d="m 240.4,274.5 c -0.5,-0.1 -1,-0.3 -1.5,-0.4 V 256 c 0.5,0 1,0 1.5,0 v 18.6 z"
             id="path35" />
          <path
             class="cls-8"
             d="m 244.6,275.5 c -0.5,0 -1,-0.2 -1.5,-0.3 0,-0.2 0,-0.4 0,-0.6 V 256 h 1.5 v 18.6 c 0,0.3 0,0.6 0,0.9 z"
             id="path36" />
          <path
             class="cls-8"
             d="m 248.8,276 c -0.5,0 -1,0 -1.4,-0.1 0,-0.4 0,-0.8 0,-1.3 V 256 h 1.5 v 18.6 c 0,0.5 0,1 0,1.4 z"
             id="path37" />
          <path
             class="cls-8"
             d="m 253,276.2 c -0.5,0 -0.9,0 -1.4,0 0,-0.5 0,-1 0,-1.6 v -18.5 h 1.5 v 18.5 c 0,0.6 0,1.2 0,1.7 z"
             id="path38" />
          <path
             class="cls-8"
             d="m 257.2,276.2 c -0.5,0 -0.9,0 -1.4,0 0,-0.5 0,-1.1 0,-1.7 V 256 h 1.5 v 18.5 c 0,0.6 0,1.1 0,1.6 z"
             id="path39" />
          <path
             class="cls-8"
             d="m 261.5,275.8 c -0.5,0 -0.9,0.1 -1.4,0.2 0,-0.4 0,-0.9 0,-1.4 v -18.5 h 1.5 v 18.5 c 0,0.4 0,0.9 0,1.3 z"
             id="path40" />
          <path
             class="cls-8"
             d="m 265.7,275.2 c -0.5,0 -1,0.2 -1.5,0.3 0,-0.3 0,-0.6 0,-0.9 v -18.4 c 0.5,0 1,0 1.5,0 v 18.4 c 0,0.2 0,0.4 0,0.6 z"
             id="path41" />
          <path
             class="cls-8"
             d="m 270,274.1 c -0.5,0.2 -1,0.3 -1.5,0.4 v -18.3 c 0.5,0 1,0 1.5,0 z"
             id="path42" />
          <path
             class="cls-8"
             d="m 274.2,272.5 c -0.5,0.2 -1,0.5 -1.5,0.7 v -16.9 c 0.5,0 1,0 1.5,0 z"
             id="path43" />
          <path
             class="cls-8"
             d="m 278.4,269.8 c -0.5,0.4 -1,0.8 -1.5,1.2 v -14.7 c 0.5,0 1,0 1.5,0 z"
             id="path44" />
          <path
             class="cls-9"
             d="m 254.4,267.8 c 14.7,0 26.8,-5.2 26.8,-11.6 0,-6.4 -12,-11.6 -26.8,-11.6 -14.8,0 -26.8,5.2 -26.8,11.6 0,6.4 12,11.6 26.8,11.6 z"
             id="path45" />
          <ellipse
             class="cls-10"
             cx="254.39999"
             cy="256.20001"
             rx="24.4"
             ry="9.1999998"
             id="ellipse45" />
          <path
             class="cls-8"
             d="m 254.4,248.3 c 12.9,0 23.5,3.8 24.4,8.6 0,-0.2 0,-0.4 0,-0.6 0,-5.1 -10.9,-9.2 -24.4,-9.2 -13.5,0 -24.4,4.1 -24.4,9.2 0,5.1 0,0.4 0,0.6 0.9,-4.8 11.4,-8.6 24.4,-8.6 z"
             id="path46" />
          <g
             id="g52">
            <path
               class="cls-3"
               d="m 249.3,253.9 c 3.8,0 7.7,0 11.5,-0.1 v -1.1 c -3.9,0 -7.7,0 -11.5,0.1 z m 0.1,5.6 c 3.8,0 7.7,0 11.5,-0.1 v -1.1 c -3.9,0 -7.7,0 -11.5,0.1 z m 11.4,-4 c -3.8,0 -7.7,0 -11.5,0.1 v 1.1 c 3.9,0 7.7,0 11.5,-0.1 z m -5.1,-4.4 v -1.8 c -0.6,0 -1.1,0 -1.6,0 v 1.8 c 0.6,0 1.1,0 1.6,0 z m 0.4,11.9 v -1.8 c -0.6,0 -1.1,0 -1.6,0 v 1.8 c 0.6,0 1.1,0 1.6,0 z"
               id="path47" />
            <path
               class="cls-3"
               d="m 249.3,253.9 v -1.1 c 3.8,0 7.6,0 11.5,-0.1 v 1.1 c -3.8,0 -7.6,0 -11.5,0.1 z"
               id="path48" />
            <path
               class="cls-3"
               d="m 249.4,259.5 v -1.1 c 3.8,0 7.6,0 11.5,-0.1 v 1.1 c -3.8,0 -7.6,0 -11.5,0.1 z"
               id="path49" />
            <path
               class="cls-3"
               d="m 260.8,255.5 v 1.1 c -3.8,0 -7.6,0 -11.5,0.1 v -1.1 c 3.8,0 7.6,0 11.5,-0.1 z"
               id="path50" />
            <path
               class="cls-3"
               d="m 255.7,251.1 h -1.6 c 0,-0.6 0,-1.2 0,-1.8 h 1.6 c 0,0.6 0,1.2 0,1.8 z"
               id="path51" />
            <path
               class="cls-3"
               d="m 256.1,263 h -1.6 c 0,-0.6 0,-1.2 0,-1.8 h 1.6 c 0,0.6 0,1.2 0,1.8 z"
               id="path52" />
          </g>
          <line
             class="cls-4"
             x1="232"
             y1="262.89999"
             x2="232"
             y2="271"
             id="line52" />
          <line
             class="cls-4"
             x1="236.10001"
             y1="265"
             x2="236.10001"
             y2="273.10001"
             id="line53" />
          <line
             class="cls-4"
             x1="240.39999"
             y1="266.39999"
             x2="240.39999"
             y2="274.5"
             id="line54" />
          <line
             class="cls-4"
             x1="244.5"
             y1="267"
             x2="244.5"
             y2="275.5"
             id="line55" />
          <line
             class="cls-4"
             x1="248.8"
             y1="267.89999"
             x2="248.8"
             y2="276"
             id="line56" />
          <line
             class="cls-4"
             x1="253"
             y1="268.20001"
             x2="253"
             y2="276.20001"
             id="line57" />
          <line
             class="cls-4"
             x1="257.39999"
             y1="268.10001"
             x2="257.39999"
             y2="276.20001"
             id="line58" />
          <line
             class="cls-4"
             x1="261.60001"
             y1="267.70001"
             x2="261.60001"
             y2="275.70001"
             id="line59" />
          <line
             class="cls-4"
             x1="265.70001"
             y1="267.10001"
             x2="265.70001"
             y2="275.20001"
             id="line60" />
          <line
             class="cls-4"
             x1="269.89999"
             y1="265.79999"
             x2="269.89999"
             y2="274.10001"
             id="line61" />
          <line
             class="cls-4"
             x1="274.10001"
             y1="264.39999"
             x2="274.10001"
             y2="272.5"
             id="line62" />
          <line
             class="cls-4"
             x1="278.39999"
             y1="261.29999"
             x2="278.39999"
             y2="269.79999"
             id="line63" />
        </g>
        <g
           id="g75">
          <line
             class="cls-7"
             x1="250.10001"
             y1="226.3"
             x2="250.10001"
             y2="213.5"
             id="line64" />
          <g
             id="g69">
            <line
               class="cls-7"
               x1="258"
               y1="227.2"
               x2="259.39999"
               y2="219.3"
               id="line65" />
            <line
               class="cls-7"
               x1="266.89999"
               y1="229.10001"
               x2="271.29999"
               y2="218.89999"
               id="line66" />
            <line
               class="cls-7"
               x1="275.10001"
               y1="232.8"
               x2="278.60001"
               y2="229.3"
               id="line67" />
            <line
               class="cls-7"
               x1="279.70001"
               y1="238.8"
               x2="287.5"
               y2="235.7"
               id="line68" />
            <line
               class="cls-7"
               x1="282.29999"
               y1="245.7"
               x2="287.10001"
               y2="245.7"
               id="line69" />
          </g>
          <g
             id="g74">
            <line
               class="cls-7"
               x1="242"
               y1="227.2"
               x2="240.60001"
               y2="219.3"
               id="line70" />
            <line
               class="cls-7"
               x1="233.10001"
               y1="229.10001"
               x2="228.60001"
               y2="218.89999"
               id="line71" />
            <line
               class="cls-7"
               x1="224.8"
               y1="232.8"
               x2="221.3"
               y2="229.3"
               id="line72" />
            <line
               class="cls-7"
               x1="220.2"
               y1="238.8"
               x2="212.5"
               y2="235.7"
               id="line73" />
            <line
               class="cls-7"
               x1="217.7"
               y1="245.7"
               x2="212.8"
               y2="245.7"
               id="line74" />
          </g>
        </g>
        <path
           class="cls-5"
           d="m 276.6,244.9 v 7.8 0 c -0.7,6.1 -12.4,11 -26.7,11 -14.3,0 -26.8,-5.2 -26.8,-11.6 v -7.3"
           id="path75" />
        <path
           class="cls-6"
           d="m 276.6,243.7 v 9 0 c -0.7,6.1 -12.4,11 -26.7,11 -14.3,0 -26.8,-5.2 -26.8,-11.6 v -8.7 c 17.5,0 35.6,0.3 53.6,0.3 z"
           id="path76" />
        <path
           class="cls-8"
           d="m 227.3,258.4 c -0.6,-0.4 -1.1,-0.8 -1.5,-1.2 v -13.9 c 0.5,0 1,0 1.5,0 v 15 z"
           id="path77" />
        <path
           class="cls-8"
           d="m 231.6,260.6 c -0.5,-0.2 -1,-0.4 -1.5,-0.7 v -16.5 c 0.5,0 1,0 1.5,0 z"
           id="path78" />
        <path
           class="cls-8"
           d="m 235.8,262 c -0.5,-0.1 -1,-0.3 -1.5,-0.4 v -18.1 c 0.5,0 1,0 1.5,0 v 18.6 z"
           id="path79" />
        <path
           class="cls-8"
           d="m 240,262.9 c -0.5,0 -1,-0.2 -1.5,-0.3 0,-0.2 0,-0.4 0,-0.6 V 243.4 H 240 V 262 c 0,0.3 0,0.6 0,0.9 z"
           id="path80" />
        <path
           class="cls-8"
           d="m 244.2,263.4 c -0.5,0 -1,0 -1.4,-0.1 0,-0.4 0,-0.8 0,-1.3 v -18.6 h 1.5 V 262 c 0,0.5 0,1 0,1.4 z"
           id="path81" />
        <path
           class="cls-8"
           d="m 248.4,263.7 c -0.5,0 -0.9,0 -1.4,0 0,-0.5 0,-1 0,-1.6 v -18.5 h 1.5 v 18.5 c 0,0.6 0,1.2 0,1.7 z"
           id="path82" />
        <path
           class="cls-8"
           d="m 252.6,263.6 c -0.5,0 -0.9,0 -1.4,0 0,-0.5 0,-1.1 0,-1.7 v -18.5 h 1.5 v 18.5 c 0,0.6 0,1.1 0,1.6 z"
           id="path83" />
        <path
           class="cls-8"
           d="m 256.9,263.3 c -0.5,0 -0.9,0.1 -1.4,0.2 0,-0.4 0,-0.9 0,-1.4 v -18.5 h 1.5 v 18.5 c 0,0.4 0,0.9 0,1.3 z"
           id="path84" />
        <path
           class="cls-8"
           d="m 261.2,262.6 c -0.5,0 -1,0.2 -1.5,0.3 0,-0.3 0,-0.6 0,-0.9 v -18.4 c 0.5,0 1,0 1.5,0 V 262 c 0,0.2 0,0.4 0,0.6 z"
           id="path85" />
        <path
           class="cls-8"
           d="m 265.4,261.5 c -0.5,0.2 -1,0.3 -1.5,0.4 v -18.3 c 0.5,0 1,0 1.5,0 z"
           id="path86" />
        <path
           class="cls-8"
           d="m 269.6,259.9 c -0.5,0.2 -1,0.5 -1.5,0.7 v -16.9 c 0.5,0 1,0 1.5,0 z"
           id="path87" />
        <path
           class="cls-8"
           d="m 273.9,257.2 c -0.5,0.4 -1,0.8 -1.5,1.2 v -14.7 c 0.5,0 1,0 1.5,0 z"
           id="path88" />
        <path
           class="cls-9"
           d="m 249.8,255.3 c 14.7,0 26.8,-5.2 26.8,-11.6 0,-6.4 -12,-11.6 -26.8,-11.6 -14.8,0 -26.8,5.2 -26.8,11.6 0,6.4 12,11.6 26.8,11.6 z"
           id="path89" />
        <ellipse
           class="cls-10"
           cx="249.8"
           cy="243.7"
           rx="24.4"
           ry="9.1999998"
           id="ellipse89" />
        <path
           class="cls-8"
           d="m 249.8,235.7 c 12.9,0 23.5,3.8 24.4,8.6 0,-0.2 0,-0.4 0,-0.6 0,-5.1 -10.9,-9.2 -24.4,-9.2 -13.5,0 -24.4,4.1 -24.4,9.2 0,5.1 0,0.4 0,0.6 0.9,-4.8 11.4,-8.6 24.4,-8.6 z"
           id="path90" />
        <g
           id="g96">
          <path
             class="cls-1"
             d="m 244.7,241.3 c 3.8,0 7.7,0 11.5,-0.1 v -1.1 c -3.9,0 -7.7,0 -11.5,0.1 z m 0.2,5.6 c 3.8,0 7.7,0 11.5,-0.1 v -1.1 c -3.9,0 -7.7,0 -11.5,0.1 z m 11.3,-4 c -3.8,0 -7.7,0 -11.5,0.1 v 1.1 c 3.9,0 7.7,0 11.5,-0.1 z m -5,-4.3 v -1.8 c -0.6,0 -1.1,0 -1.6,0 v 1.8 c 0.6,0 1.1,0 1.6,0 z m 0.3,11.8 v -1.8 c -0.6,0 -1.1,0 -1.6,0 v 1.8 c 0.6,0 1.1,0 1.6,0 z"
             id="path91" />
          <path
             class="cls-2"
             d="m 244.7,241.3 v -1.1 c 3.8,0 7.6,0 11.5,-0.1 v 1.1 c -3.8,0 -7.6,0 -11.5,0.1 z"
             id="path92" />
          <path
             class="cls-2"
             d="m 244.9,246.9 v -1.1 c 3.8,0 7.6,0 11.5,-0.1 v 1.1 c -3.8,0 -7.6,0 -11.5,0.1 z"
             id="path93" />
          <path
             class="cls-2"
             d="m 256.2,242.9 v 1.1 c -3.8,0 -7.6,0 -11.5,0.1 V 243 c 3.8,0 7.6,0 11.5,-0.1 z"
             id="path94" />
          <path
             class="cls-2"
             d="m 251.2,238.6 h -1.6 c 0,-0.6 0,-1.2 0,-1.8 h 1.6 c 0,0.6 0,1.2 0,1.8 z"
             id="path95" />
          <path
             class="cls-2"
             d="m 251.5,250.4 h -1.6 c 0,-0.6 0,-1.2 0,-1.8 h 1.6 c 0,0.6 0,1.2 0,1.8 z"
             id="path96" />
        </g>
        <line
           class="cls-4"
           x1="227.39999"
           y1="250.3"
           x2="227.39999"
           y2="258.39999"
           id="line96" />
        <line
           class="cls-4"
           x1="231.60001"
           y1="252.39999"
           x2="231.60001"
           y2="260.60001"
           id="line97" />
        <line
           class="cls-4"
           x1="235.8"
           y1="253.89999"
           x2="235.8"
           y2="262"
           id="line98" />
        <line
           class="cls-4"
           x1="240"
           y1="254.5"
           x2="240"
           y2="263"
           id="line99" />
        <line
           class="cls-4"
           x1="244.2"
           y1="255.39999"
           x2="244.2"
           y2="263.39999"
           id="line100" />
        <line
           class="cls-4"
           x1="248.39999"
           y1="255.60001"
           x2="248.39999"
           y2="263.70001"
           id="line101" />
        <line
           class="cls-4"
           x1="252.8"
           y1="255.60001"
           x2="252.8"
           y2="263.60001"
           id="line102" />
        <line
           class="cls-4"
           x1="257.10001"
           y1="255.10001"
           x2="257.10001"
           y2="263.10001"
           id="line103" />
        <line
           class="cls-4"
           x1="261.20001"
           y1="254.5"
           x2="261.20001"
           y2="262.60001"
           id="line104" />
        <line
           class="cls-4"
           x1="265.29999"
           y1="253.3"
           x2="265.29999"
           y2="261.5"
           id="line105" />
        <line
           class="cls-4"
           x1="269.60001"
           y1="251.8"
           x2="269.60001"
           y2="259.89999"
           id="line106" />
        <line
           class="cls-4"
           x1="273.79999"
           y1="248.7"
           x2="273.79999"
           y2="257.20001"
           id="line107" />
      </g>
    </g>
  </g>
  <metadata
     id="metadata1">
    <rdf:RDF>
      <cc:License
         rdf:about="http://creativecommons.org/publicdomain/zero/1.0/">
        <cc:permits
           rdf:resource="http://creativecommons.org/ns#Reproduction" />
        <cc:permits
           rdf:resource="http://creativecommons.org/ns#Distribution" />
        <cc:permits
           rdf:resource="http://creativecommons.org/ns#DerivativeWorks" />
      </cc:License>
      <cc:Work
         rdf:about="">
        <cc:license
           rdf:resource="http://creativecommons.org/publicdomain/zero/1.0/" />
      </cc:Work>
    </rdf:RDF>
  </metadata>
</svg>
