<?xml version="1.0" encoding="UTF-8" standalone="no"?>
<svg
   version="1.1"
   viewBox="0 0 89.384354 97"
   id="svg35"
   width="89.384354"
   height="97"
   xmlns="http://www.w3.org/2000/svg"
   xmlns:svg="http://www.w3.org/2000/svg">
  <defs
     id="defs1">
    <style
       id="style1">
      .cls-1 {
        fill: #603e98;
      }

      .cls-2 {
        fill: #010101;
      }

      .cls-3 {
        stroke: #f8cc16;
        stroke-width: .6px;
      }

      .cls-3, .cls-4, .cls-5 {
        stroke-linecap: round;
        stroke-linejoin: round;
      }

      .cls-3, .cls-6 {
        fill: #f8cc16;
      }

      .cls-4 {
        stroke: #231f20;
        stroke-width: 3.5px;
      }

      .cls-4, .cls-7, .cls-8 {
        fill: none;
      }

      .cls-5 {
        fill: #f8cc0f;
        stroke-width: 8px;
      }

      .cls-5, .cls-7, .cls-8, .cls-9 {
        stroke: #010101;
      }

      .cls-10 {
        fill: #6b4fa0;
      }

      .cls-11 {
        fill: #4c3084;
      }

      .cls-7 {
        stroke-width: .6px;
      }

      .cls-7, .cls-8, .cls-9 {
        stroke-miterlimit: 10;
      }

      .cls-8, .cls-9 {
        stroke-width: 1px;
      }

      .cls-9 {
        fill: #603f98;
      }
    </style>
  </defs>
  <!-- Generator: Adobe Illustrator 28.6.0, SVG Export Plug-In . SVG Version: 1.2.0 Build 709)  -->
  <g
     id="g35"
     transform="translate(-205.36126,-201)">
    <g
       id="Layer_1">
      <path
         class="cls-5"
         d="m 231.9,207.2 c 0.8,-0.2 2,-0.2 2.6,0.1 l 5.9,3.1 c 0.9,0.5 2,0.4 2.9,-0.1 0.9,-0.6 1.3,-1.6 1.3,-2.6 v -0.9 c -0.1,-0.6 0.2,-1.1 0.4,-1.3 0.2,-0.2 0.6,-0.5 1.2,-0.5 h 7.8 c 0.6,0 1.1,0.3 1.2,0.5 0.2,0.2 0.5,0.6 0.4,1.3 v 1 c -0.2,1 0.3,2 1.2,2.6 0.9,0.6 2,0.6 2.9,0.1 l 6.1,-3.2 c 0.6,-0.3 1.7,-0.4 2.4,-0.2 L 261.3,224 H 238.9 L 232,207.2 Z m 55.5,80.6 c -3,4 -7.7,6.2 -12.6,6.2 h -49.5 c -5,0 -9.6,-2.3 -12.6,-6.2 -3,-3.9 -4.1,-9 -2.8,-13.8 4.6,-17.3 14.1,-32.6 27.7,-44.4 h 24.9 c 13.6,11.8 23.1,27.1 27.7,44.4 1.3,4.8 0.3,9.8 -2.8,13.8 z"
         id="path1" />
      <path
         class="cls-6"
         d="m 231.9,207.2 c 0.8,-0.2 2,-0.2 2.6,0.1 l 5.9,3.1 c 0.9,0.5 2,0.4 2.9,-0.1 0.9,-0.6 1.3,-1.6 1.3,-2.6 v -0.9 c -0.1,-0.6 0.2,-1.1 0.4,-1.3 0.2,-0.2 0.6,-0.5 1.2,-0.5 h 7.8 c 0.6,0 1.1,0.3 1.2,0.5 0.2,0.2 0.5,0.6 0.4,1.3 v 1 c -0.2,1 0.3,2 1.2,2.6 0.9,0.6 2,0.6 2.9,0.1 l 6.1,-3.2 c 0.6,-0.3 1.7,-0.4 2.4,-0.2 L 261.3,224 H 238.9 L 232,207.2 Z m 55.5,80.6 c -3,4 -7.7,6.2 -12.6,6.2 h -49.5 c -5,0 -9.6,-2.3 -12.6,-6.2 -3,-3.9 -4.1,-9 -2.8,-13.8 4.6,-17.3 14.1,-32.6 27.7,-44.4 h 24.9 c 13.6,11.8 23.1,27.1 27.7,44.4 1.3,4.8 0.3,9.8 -2.8,13.8 z"
         id="path2" />
      <ellipse
         class="cls-9"
         cx="248.2"
         cy="270.29999"
         rx="16.9"
         ry="17.4"
         transform="rotate(-31.4,248.19044,270.3353)"
         id="ellipse2" />
      <g
         id="g3">
        <ellipse
           class="cls-1"
           cx="250.3"
           cy="269.10001"
           rx="14.5"
           ry="17.4"
           transform="rotate(-31.4,250.29137,269.00649)"
           id="ellipse3" />
        <path
           class="cls-2"
           d="m 259.7,284.5 c -7.2,4.4 -17.2,1 -22.4,-7.5 -5.2,-8.5 -3.6,-19 3.6,-23.3 7.2,-4.4 17.2,-1 22.4,7.5 5.2,8.5 3.6,19 -3.6,23.3 z m -18.2,-30.1 c -6.5,4 -7.8,14 -3,21.8 4.8,7.8 14.3,11.3 20.8,7.4 6.5,-3.9 7.5,-13.9 2.7,-21.8 -4.8,-7.8 -14.1,-11.4 -20.6,-7.5 z"
           id="path3" />
      </g>
      <polygon
         class="cls-11"
         points="233.1,277.7 236.5,275.5 237.1,276.6 233.7,278.8 "
         id="polygon3" />
      <g
         id="g4">
        <ellipse
           class="cls-10"
           cx="250.3"
           cy="269.10001"
           rx="11.3"
           ry="13.5"
           transform="rotate(-31.4,250.29137,269.00649)"
           id="ellipse4" />
        <path
           class="cls-11"
           d="m 257.5,280.5 c -5.5,3.3 -13.1,1.1 -17.1,-5.4 -4,-6.5 -2.6,-14.2 2.8,-17.6 5.5,-3.3 12.7,-0.9 16.7,5.6 4,6.5 3.1,14 -2.4,17.3 z m -14.1,-22.7 c -5.2,3.2 -6.3,10.8 -2.5,17 3.8,6.2 11.1,8.7 16.3,5.6 5.2,-3.2 6.3,-10.8 2.5,-17 -3.8,-6.2 -11.1,-8.7 -16.3,-5.6 z"
           id="path4" />
      </g>
      <line
         class="cls-7"
         x1="232.89999"
         y1="277.79999"
         x2="236.7"
         y2="275.5"
         id="line4" />
      <polygon
         class="cls-11"
         points="234.6,280.1 237.9,278 238.6,278.9 235.4,281.1 "
         id="polygon4" />
      <line
         class="cls-7"
         x1="234.7"
         y1="280.20001"
         x2="238.5"
         y2="277.79999"
         id="line5" />
      <polygon
         class="cls-11"
         points="236.4,282.3 239.7,280.3 240.6,281.2 237.4,283.2 "
         id="polygon5" />
      <polygon
         class="cls-11"
         points="238.7,284.3 242,282.5 243.1,283.2 239.9,285 "
         id="polygon6" />
      <polygon
         class="cls-11"
         points="241.6,286.1 244.6,284.2 245.8,284.8 243.2,286.6 "
         id="polygon7" />
      <polygon
         class="cls-11"
         points="245.7,287.3 248.1,285.7 249.4,286.1 247.4,287.7 "
         id="polygon8" />
      <polygon
         class="cls-11"
         points="232,275 235.4,273 235.8,274.1 232.5,276.2 "
         id="polygon9" />
      <polygon
         class="cls-11"
         points="231.5,271.8 234.6,270 234.8,271.2 231.8,273 "
         id="polygon10" />
      <polygon
         class="cls-11"
         points="231.5,268.5 234.2,267 234.3,268.1 231.5,269.6 "
         id="polygon11" />
      <polygon
         class="cls-11"
         points="232.6,264.3 234.5,263.3 234.4,264.3 232.3,265.4 "
         id="polygon12" />
      <line
         class="cls-7"
         x1="236.8"
         y1="282.29999"
         x2="240.7"
         y2="280"
         id="line12" />
      <line
         class="cls-7"
         x1="239.10001"
         y1="284.39999"
         x2="243"
         y2="282"
         id="line13" />
      <line
         class="cls-7"
         x1="241.7"
         y1="286.20001"
         x2="245.5"
         y2="283.89999"
         id="line14" />
      <line
         class="cls-7"
         x1="231.7"
         y1="275.10001"
         x2="235.60001"
         y2="272.70001"
         id="line15" />
      <line
         class="cls-7"
         x1="231.5"
         y1="271.79999"
         x2="235.3"
         y2="269.39999"
         id="line16" />
      <line
         class="cls-7"
         x1="231.39999"
         y1="268.39999"
         x2="235.3"
         y2="266"
         id="line17" />
      <line
         class="cls-7"
         x1="232.10001"
         y1="264.60001"
         x2="235.5"
         y2="262.5"
         id="line18" />
      <line
         class="cls-7"
         x1="245.7"
         y1="287.20001"
         x2="249.2"
         y2="285.10001"
         id="line19" />
      <line
         class="cls-4"
         x1="245.39999"
         y1="247.7"
         x2="244.89999"
         y2="240.60001"
         id="line20" />
      <line
         class="cls-4"
         x1="253.60001"
         y1="248.5"
         x2="257.20001"
         y2="234.89999"
         id="line21" />
      <line
         class="cls-4"
         x1="260.79999"
         y1="251.60001"
         x2="263.60001"
         y2="245.8"
         id="line22" />
      <line
         class="cls-4"
         x1="266.39999"
         y1="256"
         x2="275.39999"
         y2="250.39999"
         id="line23" />
      <line
         class="cls-4"
         x1="269.5"
         y1="262.39999"
         x2="274.10001"
         y2="261.20001"
         id="line24" />
      <line
         class="cls-4"
         x1="270.20001"
         y1="269.20001"
         x2="277.79999"
         y2="271.5"
         id="line25" />
      <line
         class="cls-4"
         x1="238.39999"
         y1="250.10001"
         x2="233.10001"
         y2="242"
         id="line26" />
      <line
         class="cls-4"
         x1="232.39999"
         y1="254.5"
         x2="227.60001"
         y2="251.5"
         id="line27" />
      <line
         class="cls-4"
         x1="228.3"
         y1="261.29999"
         x2="224.7"
         y2="260.60001"
         id="line28" />
      <path
         class="cls-8"
         d="m 257.3,285.2 c -8,4.9 -18.5,2.2 -23.5,-6 -5,-8.2 -2.6,-18.8 5.4,-23.6"
         id="path28" />
      <g
         id="g34">
        <path
           class="cls-3"
           d="m 244.5,268.9 c 2.8,-1.5 5.6,-3 8.4,-4.5 l -0.7,-1.1 c -2.8,1.5 -5.6,3 -8.4,4.5 0.2,0.4 0.4,0.7 0.7,1.1 z m 3.4,5.9 c 2.8,-1.5 5.6,-3 8.4,-4.5 l -0.7,-1.1 c -2.8,1.5 -5.6,3 -8.4,4.5 z m 6.1,-8.5 -8.4,4.5 0.6,1.1 c 2.8,-1.5 5.6,-3 8.4,-4.5 z m -6.4,-2.8 c -0.4,-0.6 -0.8,-1.3 -1.1,-1.9 l -1.2,0.6 1.1,1.9 c 0.4,-0.2 0.8,-0.4 1.2,-0.6 z m 7.3,12.5 c -0.4,-0.7 -0.8,-1.3 -1.1,-1.9 l -1.2,0.6 1.1,1.9 z"
           id="path29" />
        <path
           class="cls-3"
           d="m 244.5,268.9 c -0.2,-0.4 -0.4,-0.7 -0.7,-1.1 2.8,-1.5 5.6,-3 8.4,-4.5 l 0.7,1.1 c -2.8,1.5 -5.6,3 -8.4,4.5 z"
           id="path30" />
        <path
           class="cls-3"
           d="m 247.9,274.8 -0.7,-1.1 c 2.8,-1.5 5.6,-3 8.4,-4.5 l 0.7,1.1 c -2.8,1.5 -5.6,3 -8.4,4.5 z"
           id="path31" />
        <path
           class="cls-3"
           d="m 254,266.3 0.6,1.1 c -2.8,1.5 -5.6,3 -8.4,4.5 l -0.6,-1.1 z"
           id="path32" />
        <path
           class="cls-3"
           d="m 247.6,263.5 c -0.4,0.2 -0.8,0.4 -1.2,0.6 l -1.1,-1.9 1.2,-0.6 c 0.4,0.6 0.8,1.3 1.1,1.9 z"
           id="path33" />
        <path
           class="cls-3"
           d="m 254.9,276 -1.2,0.6 -1.1,-1.9 1.2,-0.6 c 0.4,0.6 0.7,1.3 1.1,1.9 z"
           id="path34" />
      </g>
    </g>
  </g>
</svg>
