<svg width="128" height="128" viewBox="0 0 128 128" fill="none" xmlns="http://www.w3.org/2000/svg">
<mask id="mask0_7_1989" style="mask-type:alpha" maskUnits="userSpaceOnUse" x="73" y="38" width="46" height="65">
<path d="M95.9997 38C90.3542 38 85.7775 42.1122 85.7775 47.1848V56.3696C85.7775 59.2605 87.2924 61.9828 89.8664 63.7174C90.1516 63.9096 90.0851 64.347 89.7556 64.4456L81.7371 66.8472C76.8048 68.3245 73.3901 72.3258 73.0313 76.9334C72.9897 77.4671 73.0675 78.0013 73.2009 78.5197L79.5 103C106.943 103 115.635 97.2124 118.109 94.7132C118.778 94.0378 119 93.0929 119 92.1426V77.739C119 72.7973 115.481 68.4099 110.263 66.8472L102.244 64.4455C101.914 64.3468 101.848 63.9096 102.133 63.7174C104.707 61.9828 106.222 59.2605 106.222 56.3696V47.1848C106.222 42.1122 101.645 38 95.9997 38Z" fill="#5448EE"/>
</mask>
<g mask="url(#mask0_7_1989)">
<path d="M95.9997 38C90.3542 38 85.7775 42.1122 85.7775 47.1848V56.3696C85.7775 59.2605 87.2924 61.9828 89.8664 63.7174C90.1516 63.9096 90.0851 64.347 89.7556 64.4456L81.7371 66.8472C76.8048 68.3245 73.3901 72.3258 73.0313 76.9334C72.9897 77.4671 73.0675 78.0013 73.2009 78.5197L79.5 103C106.943 103 115.635 97.2124 118.109 94.7132C118.778 94.0378 119 93.0929 119 92.1426V77.739C119 72.7973 115.481 68.4099 110.263 66.8472L102.244 64.4455C101.914 64.3468 101.848 63.9096 102.133 63.7174C104.707 61.9828 106.222 59.2605 106.222 56.3696V47.1848C106.222 42.1122 101.645 38 95.9997 38Z" fill="#5448EE"/>
<path opacity="0.34" d="M79.4229 76L112.423 107.841L109.423 111.884H70.9998V77.3607L79.4229 76Z" fill="#322B4E"/>
</g>
<path d="M32.0003 38C37.6458 38 42.2225 42.1122 42.2225 47.1848V56.3696C42.2225 59.2605 40.7076 61.9828 38.1336 63.7174L37.4195 64.1986L46.2629 66.8472C51.4806 68.4099 55 72.7973 55 77.739L48.5 103C13.5 103 9 93.5862 9 93.5862V77.739C9 72.7973 12.5194 68.4099 17.7371 66.8472L26.5808 64.1985L25.8669 63.7174C23.2929 61.9828 21.778 59.2605 21.778 56.3696V47.1848C21.778 42.1122 26.3547 38 32.0003 38Z" fill="url(#paint0_linear_7_1989)"/>
<mask id="mask1_7_1989" style="mask-type:alpha" maskUnits="userSpaceOnUse" x="38" y="54" width="52" height="50">
<path d="M38.3857 73.7909C38.3857 67.5992 42.3053 62.1022 48.1163 60.1442L64.0011 54.792L79.8859 60.1442C85.6969 62.1022 89.6165 67.5992 89.6165 73.7909V95.0005C89.6165 99.4188 86.0348 103.001 81.6165 103.001H46.3857C41.9675 103.001 38.3857 99.4188 38.3857 95.0005V73.7909Z" fill="#B0AEB8"/>
<path d="M38.3857 73.7909C38.3857 67.5992 42.3053 62.1022 48.1163 60.1442L64.0011 54.792L79.8859 60.1442C85.6969 62.1022 89.6165 67.5992 89.6165 73.7909V95.0005C89.6165 99.4188 86.0348 103.001 81.6165 103.001H46.3857C41.9675 103.001 38.3857 99.4188 38.3857 95.0005V73.7909Z" fill="#B0AEB8"/>
</mask>
<g mask="url(#mask1_7_1989)">
<path d="M38.3857 73.7909C38.3857 67.5992 42.3053 62.1022 48.1163 60.1442L64.0011 54.792L79.8859 60.1442C85.6969 62.1022 89.6165 67.5992 89.6165 73.7909V108.055H38.3857V73.7909Z" fill="#645F76"/>
<path d="M38.3857 73.7909C38.3857 67.5992 42.3053 62.1022 48.1163 60.1442L64.0011 54.792L79.8859 60.1442C85.6969 62.1022 89.6165 67.5992 89.6165 73.7909V108.055H38.3857V73.7909Z" fill="#645F76"/>
<path opacity="0.34" d="M90 86.7889L57 54.9479L60 50.9046H98.4231V85.4282L90 86.7889Z" fill="#322B4E"/>
</g>
<path d="M52.6162 35.3846C52.6162 29.0971 57.7133 24 64.0008 24C70.2884 24 75.3854 29.0971 75.3854 35.3846V47.1141C75.3854 50.6768 73.7177 54.034 70.8786 56.1863L69.1592 57.4899C66.109 59.8023 61.8926 59.8023 58.8425 57.4899L57.123 56.1863C54.284 54.034 52.6162 50.6768 52.6162 47.1141V35.3846Z" fill="#645F76"/>
<defs>
<linearGradient id="paint0_linear_7_1989" x1="-49" y1="-16.2414" x2="19.0934" y2="125.345" gradientUnits="userSpaceOnUse">
<stop stop-color="#E4E2FC" stop-opacity="0"/>
<stop offset="1" stop-color="#B7B2F8"/>
</linearGradient>
</defs>
</svg>
