<svg width="20" height="20" viewBox="0 0 20 20" fill="currentColor" xmlns="http://www.w3.org/2000/svg">
<path d="M0.883695 15.1157C0.395539 15.6039 0.395539 16.3953 0.883695 16.8835C1.37185 17.3716 2.16331 17.3716 2.65146 16.8835L17.1472 2.38779C17.6353 1.89963 17.6353 1.10818 17.1472 0.620023C16.659 0.131868 15.8675 0.131867 15.3794 0.620023L12.5648 3.43457C12.2468 2.31756 11.2188 1.4996 9.9998 1.4996C8.65952 1.4996 7.55018 2.48838 7.36145 3.77627C5.37149 4.75213 3.9998 6.79795 3.9998 9.16626V11.7983C3.9998 11.8834 3.98414 11.9669 3.95442 12.045L0.883695 15.1157Z" />
<path d="M9.9998 18.4996C8.53208 18.4996 7.27537 17.5962 6.75542 16.3151L15.7201 7.35035C15.9018 7.92309 15.9998 8.53315 15.9998 9.16626V11.7983C15.9998 11.9821 16.0728 12.1584 16.2028 12.2884L17.3736 13.4592C17.6596 13.7452 17.7451 14.1753 17.5903 14.5489C17.4356 14.9226 17.0709 15.1663 16.6665 15.1663H13.4959C13.4089 17.0219 11.8769 18.4996 9.9998 18.4996Z" />
</svg>
