<svg xmlns="http://www.w3.org/2000/svg" width="1792" height="1792" fill="currentColor"><path d="M343.162 591.348a171.1 171.1 0 0 1-180.153 161.54A171.1 171.1 0 0 1 1.47 572.736a171.1 171.1 0 0 1 180.152-161.54 171.1 171.1 0 0 1 161.54 180.152Zm139.806 894.301a171.1 171.1 0 0 1-180.153 161.54 171.1 171.1 0 0 1-161.54-180.152 171.1 171.1 0 0 1 180.152-161.54 171.1 171.1 0 0 1 161.54 180.152Zm893.942 143.448a171.1 171.1 0 0 1-180.152 161.54 171.1 171.1 0 0 1-161.54-180.152 171.1 171.1 0 0 1 180.152-161.54 171.1 171.1 0 0 1 161.54 180.152zm412.682-805.646a171.1 171.1 0 0 1-180.153 161.54A171.1 171.1 0 0 1 1447.9 804.84a171.1 171.1 0 0 1 180.152-161.54 171.1 171.1 0 0 1 161.54 180.152ZM1150.7 182.087a171.1 171.1 0 0 1-180.153 161.54 171.1 171.1 0 0 1-161.54-180.152A171.1 171.1 0 0 1 989.16 1.935a171.1 171.1 0 0 1 161.54 180.151ZM358.177 553.769a188.21 188.21 0 0 1 2.07 38.508 188.21 188.21 0 0 1-19.561 73.714l276.934 44.48 54.43-106.295zm474.636 76.222-54.436 106.305 654.336 105.089a188.21 188.21 0 0 1-1.9-37.479 188.21 188.21 0 0 1 20.08-74.648zm232.375-289.719a188.21 188.21 0 0 1-95.57 20.442 188.21 188.21 0 0 1-16.472-1.73l43.215 276.721 117.916 18.921zm-43.711 456.308 102.175 654.25a188.21 188.21 0 0 1 92.651-18.968 188.21 188.21 0 0 1 19.69 2.16l-96.595-618.527Zm-227.13-593.438L306.49 450.377a188.21 188.21 0 0 1 51.34 101.316l487.854-247.246a188.21 188.21 0 0 1-51.336-101.305Zm352.244 56.549a188.21 188.21 0 0 1-80.512 80.133l385.928 387.417a188.21 188.21 0 0 1 80.507-80.133zm339.88 688.09-249.204 486.508a188.21 188.21 0 0 1 101.066 51.86l249.198-486.504a188.21 188.21 0 0 1-101.06-51.864Zm-988.39 500.889a188.21 188.21 0 0 1 1.97 37.91 188.21 188.21 0 0 1-19.855 74.254l539.91 86.637a188.21 188.21 0 0 1-1.975-37.916 188.21 188.21 0 0 1 19.86-74.248zM256.103 750.313a188.21 188.21 0 0 1-94.022 19.657 188.21 188.21 0 0 1-18.168-1.9l84.423 540a188.21 188.21 0 0 1 94.022-19.656 188.21 188.21 0 0 1 18.158 1.9zm591.486-443.886L562.154 863.662l84.274 84.6L948.643 358.28a188.21 188.21 0 0 1-101.055-51.853Zm-359.671 702.166-144.58 282.249a188.21 188.21 0 0 1 101.045 51.848l127.803-249.503zm945.319-164.103-250.18 126.79 18.446 117.99 283.07-143.463a188.21 188.21 0 0 1-51.336-101.317Zm-395.416 200.392-591.533 299.787a188.21 188.21 0 0 1 51.346 101.327l558.633-283.118zm-698.767-375.93a188.21 188.21 0 0 1-80.496 80.123l441.912 443.636 106.54-53.993zM921.948 1254.1l-106.54 53.993 223.917 224.792a188.21 188.21 0 0 1 80.512-80.133z" fill-opacity=".996"/></svg>